{"title":"Rogue One (2016) 720p Hindi Dubbed HDRip x264 AAC by Full4movies","magnet":"magnet:?xt=urn:btih:29c35ae7fd2abd017a099ba0dbc1b2347ac9068d&dn=Rogue+One+%282016%29+720p+Hindi+Dubbed+HDRip+x264+AAC+by+Full4movies&tr=udp%3A%2F%2Ftracker.leechers-paradise.org%3A6969&tr=udp%3A%2F%2Fzer0day.ch%3A1337&tr=udp%3A%2F%2Fopen.demonii.com%3A1337&tr=udp%3A%2F%2Ftracker.coppersurfer.tk%3A6969&tr=udp%3A%2F%2Fexodus.desync.com%3A6969","uploader":"shmasti","categoryP":"video","categoryS":"movies","size":"1018207729","seeders":"1","leechers":"9","description":"General\r\nComplete name                  : Rogue One (2016) 720p Hindi Dubbed HDRip x264 AAC [Hindi (Original)] by Full4movies.mkv\r\nFormat                         : Matroska\r\nFormat version                 : Version 4 / Version 2\r\nFile size                      : 971 MiB\r\nDuration                       : 2 h 13 min\r\nOverall bit rate               : 1 013 kb/s\r\nMovie name                     : Rogue One (2016) Hindi - www.Full4movies.co\r\nEncoded date                   : UTC 2018-05-07 07:07:01\r\nWriting application            : mkvmerge v8.1.0 (&apos;Psychedelic Postcard&apos;) 32bit\r\nWriting library                : libebml v1.3.1 + libmatroska v1.4.2\r\n\r\nVideo\r\nID                             : 1\r\nFormat                         : AVC\r\nFormat/Info                    : Advanced Video Codec\r\nFormat profile                 : High@L4.1\r\nFormat settings, CABAC         : Yes\r\nFormat settings, RefFrames     : 4 frames\r\nCodec ID                       : V_MPEG4/ISO/AVC\r\nDuration                       : 2 h 13 min\r\nBit rate                       : 900 kb/s\r\nWidth                          : 1 280 pixels\r\nHeight                         : 534 pixels\r\nDisplay aspect ratio           : 2.40:1\r\nOriginal display aspect ratio  : 2.40:1\r\nFrame rate mode                : Variable\r\nFrame rate                     : 23.976 FPS\r\nColor space                    : YUV\r\nChroma subsampling             : 4:2:0\r\nBit depth                      : 8 bits\r\nScan type                      : Progressive\r\nBits/(Pixel*Frame)             : 0.055\r\nStream size                    : 862 MiB (89%)\r\nWriting library                : x264 core 148\r\nLanguage                       : English\r\nDefault                        : Yes\r\nForced                         : No\r\n\r\nAudio\r\nID                             : 2\r\nFormat                         : AAC\r\nFormat/Info                    : Advanced Audio Codec\r\nFormat profile                 : LC\r\nCodec ID                       : A_AAC\r\nDuration                       : 2 h 13 min\r\nBit rate                       : 111 kb/s\r\nChannel(s)                     : 2 channels\r\nChannel positions              : Front: L R\r\nSampling rate                  : 48.0 kHz\r\nFrame rate                     : 46.875 FPS (1024 SPF)\r\nCompression mode               : Lossy\r\nDelay relative to video        : -64 ms\r\nStream size                    : 106 MiB (11%)\r\nLanguage                       : Hindi\r\nDefault                        : Yes\r\nForced                         : No","last_updated":"2018-05-07T12:06:40.885Z","parsed":{"xt":"urn:btih:29c35ae7fd2abd017a099ba0dbc1b2347ac9068d","dn":"Rogue One (2016) 720p Hindi Dubbed HDRip x264 AAC by Full4movies","tr":["udp://exodus.desync.com:6969","udp://open.demonii.com:1337","udp://tracker.coppersurfer.tk:6969","udp://tracker.leechers-paradise.org:6969","udp://zer0day.ch:1337"],"infoHash":"29c35ae7fd2abd017a099ba0dbc1b2347ac9068d","infoHashBuffer":{"type":"Buffer","data":[41,195,90,231,253,42,189,1,122,9,155,160,219,193,178,52,122,201,6,141]},"name":"Rogue One (2016) 720p Hindi Dubbed HDRip x264 AAC by Full4movies","announce":["udp://exodus.desync.com:6969","udp://open.demonii.com:1337","udp://tracker.coppersurfer.tk:6969","udp://tracker.leechers-paradise.org:6969","udp://zer0day.ch:1337"],"urlList":[]}}